<mxfile host="app.diagrams.net" agent="Mozilla/5.0 (Windows NT 10.0; Win64; x64) AppleWebKit/537.36 (KHTML, like Gecko) Chrome/128.0.0.0 Safari/537.36 Edg/128.0.0.0" version="24.7.14">
  <diagram name="第 1 页" id="bNkwyjv12Xwsgl4B7nVT">
    <mxGraphModel dx="870" dy="498" grid="1" gridSize="10" guides="1" tooltips="1" connect="1" arrows="1" fold="1" page="1" pageScale="1" pageWidth="827" pageHeight="1169" math="0" shadow="0">
      <root>
        <mxCell id="0" />
        <mxCell id="1" parent="0" />
        <mxCell id="lupZfDlFWK5aUlkw8QFh-11" style="edgeStyle=orthogonalEdgeStyle;rounded=0;orthogonalLoop=1;jettySize=auto;html=1;entryX=0;entryY=0.5;entryDx=0;entryDy=0;" edge="1" parent="1" source="fBQ9f3TqxgZIcAiOvmAp-2" target="fBQ9f3TqxgZIcAiOvmAp-8">
          <mxGeometry relative="1" as="geometry" />
        </mxCell>
        <mxCell id="fBQ9f3TqxgZIcAiOvmAp-2" value="" style="shape=image;verticalLabelPosition=bottom;labelBackgroundColor=default;verticalAlign=top;aspect=fixed;imageAspect=0;image=data:image/png,iVBORw0KGgoAAAANSUhEUgAAAEoAAAA8CAIAAABOybv6AAAZ+klEQVRoBZVa6V8a2bYlGud5QHBWiKgooKKAMosgKKiAIuCEKIMoCIIiTnGMGdvEzGm1b/r+o+95VnMurbn9fm99MESqylpn7b32PruKYSWYmpqamJgYHx83Go0GgpGREZ1ON0yg1Wo1Go1KpVIoFENDQxKJpL+/v6+vr7e3t6enRygUdnd38/n8jo6O9vZ2Ho/37NkzbhqcDHC53GcE6S/v/9vW1sbj8drb2zs6Ojo7O/l8fldXV3d3t1Ao7Onp6e3t7evrGxgYkEqlMplscHBQLpcrlUqVSqVWqzUajVarxU1m/sQNazQahpVgampqcnLSbDabTKZRAr1e/8/0xGIxGFJ6nZ2dlGFbW9sDJqD04Jeg19bWBnp8Ph8Mu7u7BQLBf6NHuQ0PD+t0upFHwJ1rtVqGzWYDQ0rPaDSOjo7+Az2pVDowMCAWix+oh5vr7OyEhjwCyhPE/l/0RCJRT0/PY/VUKpVGoxkeHh4ZGdETIOIyf+L+GXa7fXp62mazTU1NQb3M+ITiGo1GrVYrlUoEp0wmk5D4FIvFNDi7CPgEVEbwbCPIpJf5Gd9S9WhwCgQCkUjU29srFotpcA4NDSkUCpVKpdVqoZvBYBgdHTUajePj42azeWJiApE4OTk5Pj7OmCGw2+3/jZ5Wq1Wr1Ug8uVw+ODgIelRAkUgkEAi6u7vBsKurKzMPqYa/lPFxcP6SnkQiQe4NDQ0plUq1Wg3pDAaDyWSyWCw2m83tdi8tLXm9Xp/Pt7q66vF45ubmGLOzsw6HY3p6empqymKxjI2NITgNBsPIyMjw8LBWq1WpVJAO9KRSKVUvMz5BDCFKk/D/pEfd5YG1ZKpH6SkUCo1Go9PpRkdHx8bGzGYziK2urobD4UQikUqlDg4O9vf34/F4JBJhuAhmZ2choMViof6ZSU9BAHrgBl/JDM7ONH7JLVM96pzw0sfmCWtBcPb390skEplMNjQ0pNFo9Hr9+Pj41NTUzMyM2+1eWVkJh8M7Ozt7e3vHx8cvXrx49erV5eXl2dnZ0dERY4lgfn7e7XY7nU6Hw2Gz2SYnJ8fGxvRp89RoNEqlkkbmwMAARKPcMhVrJ+DxeEgqmni0KqBstBJwOBz8/kFtoM7Z398vk8nkcjl0Gx0dtVgsdrt9YWHB7/dHIpGtra1EIrG9vf38+fOLi4uXL1++fv365cuXFxcXp6enDL/fv7a25icIBAI+n29pacnlctnt9omJiTECVAutViuXyyUSSU9PD820x2mGG0VMdnR0PDabzN/gMJxCSwIqnlgsBjelUjk8PEyjcWpqyuFwLC0tBYPBRCJxeHh4QvD27dtPnz59/vz5+vr6t99+e/v27bt37xihUCgSiayvr4dCoXA4vLm5GQqFfD7f4uKi0+mcJqYKXzWZTBqNZnBwUCgUwhs7CB4IBbl4PB6fz+/p6YElIJ77CWAPCAepVNrf309LKApdf3+/VCodJFCr1Xq93mw2T09PO53OWQKn07mwsBAIBOLx+PHx8evXr9+9e3d9ff2N4NOnTx8/fvz06dPXr18Z4XAY9ILB4MbGxtbWVjweD4fDwWDQ4/G4XK6ZmRmQNJvNOp1uaGhIKBQiGvkEtMohLPHfzs7O3t5ehUKh1+tRafR6/ejoqMlkmpycpNXIYrGYTCbYmFarReFRKpVaAqVSqdfrEY1ut9tLsLi46Ha75+bmfD5fNBo9Pj6+urr6+vXrZ4IPHz68e/fu6urq27dvX758YWxtba2vrweDQZ/PFwwGY7FYKpWKRqOhUGh5eXl2dhbl3mw2G41GjUYzMDAg/Du6CdBJoUJ0d3f39fUplcqxsTGr1Wq3220ELpdrcXER3u3z+VZWVpaWlubn5+fm5lwu1/T09MTEBIqYxWKZmJjQ6XRGo3FiYsJmszkcDo/H4/P5vF4vnMLr9YbD4aOjo/fv39/e3n7//v36+vrly5cnJydnZ2efP3++uLhgxOPxUCjkTyMUCoGwz+dzu90TExN6vR6FQaVSKRSKgYEBSRqoECi7MpkM2S+Xy2UymVarnZqampuboxHlcrk8Hs/a2tr6+no4HI5Go0iEAIHf7/d6vXNzczMzM06nc3Fx0ePxTE9PW61W2g9brdbFxUW/3x8IBLxe7+LiYiAQSCaTb968ubm5ubu7+/Lly9u3b8/Pz09PTz99+nRzc8M4ODjY3t6ORCKhUCgYDK6trSEyl5eXnU6nxWIZHh5GzMC+BgcHFQoFmgY4qlqt1ul0iLrp6Wlo5XQ6V1ZWEPZhgkgkEo1G4/F4LBaD3SUSiWg0Gg6HNwjWCVZXVyFvIBBYWFiw2+3j4+N6vR4lwWazeTyeQCDg9/tRxDc3N09PT798+fKvf/3r5ubmy5cv19fX79+///bt28+fPxnn5+fPnz9PJpPRaBQGs76+7vf7PR6P2+22Wq0Gg0Gn06F3URIMDw+bTCaz2YwKiaYBS4708Pl86+vr8Xj84OBgd3d3b29vnwAFN5lM7uzsJJPJ3d3dRCIRi8WiBLFYbGdnZ2trixL2eDw2m210dFStVsvlcrVabTKZpqen5+bm5gmQfkdHR1dXVxDw9vb2huDu7u7PP/9kXFxcnJycoMyHw2Ew9Pl8y8vLCwsLDofDYrGAicFgQBNjNBrNZrPVap2ZmXE4HHNzc0tLSysrK4FAIBQKra2tbW5u7uzsHB0doficEZyenp6cnDx//vzw8HB/f39vby+VSm1vb8fj8UQiAcJHBLu7u1tbW9FodHV11eFwwLEVCoVarTYYDOPj4xaLxWq1Op3OjY2NVCp1enr65s2br1+/3tzc/PHHHz9//vzzzz///e9/36u3v7+/u7u7vb0di8XW19ehOyLE4/HMz89T50QZNJlM4wQ2m21ubm55ednn8wUCAQT2+vo67Hd/f//Fixe/Ebx584bW2efPn4PDwcFBMplMEKRSqaOjo+Pj47OzM0QTGG5sbHi9XrvdPjo6qtPpDAbD2NgYWmer1To7OxuNRsHt3bt3nz59+vHjx93dHej9/Pnz9vb23lqi0WgkEoF0sNCVNLxer4dgYWHB7Xajd5uYmIC5u91uj8fj9Xr9fj/q59bWViwWSyQSBwcHoPf+/fvXr1+fnZ0dHh6iIdwj2N3d3dnZ2d7eTiaTBwcHx8fHp6enFxcX5+fnR0dHWPHt7e2trS2/3+90OicnJ6empqzEh2E/S0tLoHd1dfXx40eq3h9//HFzc/Pjx48PHz7c1z0seYRgY2MDARZKIxgM+v3+1dXV5eXlpaWlubk5+Adql8PhcLlcS0tLPp9vY2Njc3MTjVIqlTo5Obm8vHz58uXZ2dn+/j7SLE5AoxExCdqgh4XYJUilUslkMhaLra2tYaGXl5dXVlZ8BOFwOJlMnp6evn379vPnz4jMu7u733///RvBmzdvGEECrH00GoWt4SaQ9FRVv9+fWXacBC6Xa35+fnl5ORAIrBMEg8H19fXNzc2trS34ByI/HA6HQiH6FYglEgm46N7e3vn5OdYCyYlwxedUKrWzs0OzdGdnJ5FI7O7u7u/vHx8fX15efvjw4fv373d3d7e3tz9+/PhOcHV1xfD5fGg7seqIlr29PYTH1tbW5uYmrAyuEwwGkZnLy8vUwXHf9AB8QImj4YCw9/l8oVAoGo0i63DxWCyGXH316tXp6SmSE2wvLy8Rsefn5ycnJ6enp2dnZzjm8PDwgODk5OT169fX19ffv3+/Ibi9vf3999/vmzIIHQgEIpFIIpFIEmC1YrEYchKFa4OA3jrufnNzEyKDRiQSicfjWBqa0qFQCM261+tdXl5eXV1dW1uLRCKbm5sQPJFIHB8fw2aPjo4ODg6eP39+eXl5dXV1fX19dXX16tWry8vLF2nA7VF1UqnU4eHh+fn5mzdvPnz48O3bt9vb27u7O9TAv4ITfw8NJ2IAZXAtA0ECNBmBQAD00LLSvmdjYwP04IoQH4a8srICH0LywGz9fv/6+vr29jakQNTs7u4eHR1dXl5+/PjxM9kBXF1dvSP47bff3r59e3l5eXx8vL+/nyI4PDxE3mKz95bgxYsX/xu6DFTSWBrolSKRyBrZJa0SwEeXl5c9fweC0+/3o3uEwYRCIarz2toaPAnG63a70W3hMrig3+8Ph8OwXDhTNBrd3t4Gw5cEl2nQKk2tNZlM7u3tIUWTBKlUand3d3Nzc21t7Z4etRD0ZYFAYHX1flaxsLAwR+B2u10ul9P5137E4XDMEDgcjtnZWSfZBNsJZmdnaUsxT3plp9M5MzNjs9mmCKanp+lZLpdrdnb2MeeVlZVgMIg4jxOAPM2CYDBIwycSiUAaSILyi+2Ox+O5D046e8Eau1wuh8Nht9vRzk5OTk5MTFhI72ImGBsbM5lMxjRMpvvRqMFg0Ovvtzy08uLg8fFxeoDh71MtfDWWhpnMuSYnJ20228zMDBZulgDToOnp6ZmZGdyY3W7HUi4tLSEKFhcXiRZ/9Wsul2thYeF+UoYTJiYmzGbzGBkl4V51BGjENARqAsWvIJfLhwjkZHCgJINkVRrKv0OlUimVSpwymAa2uTgDszmchL+Gy6pUKjqcHhkZwZgM5R7RkVn37ydlVBlTels5PDysSY/cM+9AlkZ6P/Trf6VSqUx2Py1/gAfkKX/6Qa1WawmwoFoy+deSGbtOp9Pr9QaDwWg0mtLAZ2iO8SZkh27oFu+n1HRDhSjS6/UjBDqdjk65cfXR0fuB6SiBgWBkZAQi68gwPPMrerCRYHR0lF4EjSs69XECBHw6Tn/9L5ppCwEaQ+hms9kQt06nE/097RPvB4HIfrvdTqlCUnohei0EAJaDym5OA9tqG4E1AzhrcnISF7SQnfgkAS4yPj4+Ojo6QibqGFhkJrDFYsHBaDtxNQQhjMrpdGI8sbi4CNEwWInFYozFxUU4JHjOzs5OE2Rai8VigQ1AOmQmpIBbQKixsTHc+kQaMCT0+PQrXA1yYQyj0WhkMllvb29fX59MJsOMfWRkxGg04ppQyWq12mw2rBsUg/EuLCwsLS15PJ6VlRXa3Mfj8WQyyXATwKOnyeYfVonhysjIiFqtHhwcFIvFQqEQc+ju7m6BQCAUCkUiUQ95xNHX14e53UAaNAORsAqFYnh4GLdrNBr1ej3NcLlcLhaL29vb6+rqampqOByOQCAYGBiQy+UajYaSxBohUKDn9PQ0NU+v14tuAbtNtF+pVOr+ARjCxmQy6dNzW5VKheXk8/ltbW1NTU21tbVMJrOysrKqqqq6uprJZNYQsNnshoaGxsbGlpYWDofT2traSNDS0vLs2TMej4ehLY/HEwgEEolkaGhocHBQIpH09fUJhfcPBoVCoUAgAL2ysrKqqqqampr6+vq2tjY+n4+lFBFgqCORSAYHB8F8bGzMbrfPz897CGjKYaK5ubnJwNMFs9lsIJtxjUajVqsVCoVYLO7o6GhsbGQymaWlpSUlJYWFhXl5ebkEeWkUFBQUFxeXlpZWV1fX1NRUVlYWFRUVFhaWlJTgRtlsdm1tbX19fXNzMwhzudyWlpbGxkY2QX19fQtBbW1tUVFRAUFJSQmLxWpsbISkVVVVlZWV1dXVbDa7ubm5q6tLLperVCqdTjc5OTk/P7+6uuojewN/GtjcMBwOh81ms1gsBoMBT0sUCsXQ0FB/f39XV1dLS0tNTQ3oFRQUZGdnP3nyhMFgPEkjKysrJycnPz+/uLi4pKQkLy8Px+Tk5BQVFZWXl0NqJgEEr6qqKi8vx3phISoqKqqrq6uqqoqKiooJysrKEBcsFqusrCwvLy8nJyc3N7ewsJDJZPJ4PBrzer3earXCMGl9n5+fdzqddrv9/gkR5u0mkwmZBnoymUwsFnd3d3O53Pr6+pqaGvyZ7OzsrKysbIKsrKwnT55kZ2fn5ubiDrKyshgE2dnZBQUFZWVlFQTgA2Hz8/Nzc3OfPn2K6+C+8/Pzi4qKSkpKEP9MJrOurg5/t6SkJDc3Nzs7++nTp/n5+ZWVlc3Nzd3d3Zis9vT0DA4OYkpvMplQUoxGI7gwnGTSTp9+waBR1uVyuVQqFYvFAoGgra2tvr4esVdQUFBCAD2zCKAquDEYjKysrLy8vOLiYlAqKCjIy8sDJXoM/UDXqKioqLS0tKysrLy8vKysrLS0tKioCNywFrgmVRvxX1dX19TU1NLSwuVy29vb+Xw+mHd3d98XBpfLBcPFc006GB8eHlapVPSxSWdnJ4fDaWhoqK2tbWxsbGpqYrPZpaWlkOIBPQQwFRk6Uz70A4jlENCggFBPnz6lpyMVGAxGdnZ2Tk5OXl4ezXlQRXo3NTW1trY+e/aMkvyL3szMTGYDjaqg0+kwYJRKpX19fV1dXVwut6Ghgc1mNzY2Njc3NzQ0VFZWFhYWYoEfMEyn532uPsaTJ0+ysrKQS7W197ZcWlqKBC4pKYHs0Bwulp+f/zQNJCEin8lkwmbb29ufkfcsOjo6urq68OYBA+NaGMzk5OQEwfj4OJxGoVDIZLL+/n6RSNTZ2dna2spms6uqqmAVVVVVsBNEXSY93H3mb8DwyZMnT58+zcvLQ7IxmUyUENhpM0FTU1NDQ0NdXR2bzYYb1dTUVFdXw40KCgqKiopQQphMJpvNbmlpQf3o6OiAbkKhEC8cMJaXl91uN9SjfRZSU6PRDA0NicVicONwOPX19VVVVTDSoqKi/Pz8nJwcmA0yEEEIbvg9GELJ7OzsvLy8kpKSiooKWEh9fT2Hw2lvb6dPYLq6ujo7Ozs6Ong8HofDaSFobm5ubGysqampqKhAZmKJa2pqamtrW1pa+ATt5K0aPp8vEon6yTNdhtfrdTqdVquVbojo9kyn08nlcpFI1NHR0dzczGKxKisrkfGogTk5OciQp0+fwjxzc3NBGPlDkwc5U1BQUFFRwWKxamtrIQjqWFtbW0dHRycBj8dra2vj8XhcLrepqamurq62thYuymKxqqqqKgiwOlCvoaEBvoK6yufzhUIhWrz74KQPn1AbhgmQeBKJpL29HTlWSlBJUF5ejlShhbiwsJCaJOKnpKQEp9BjYIwQH/UNhZFFwGQy6a1XE6Cc4DpYVvhqRUUF1GOz2fX19bBNDofD5XJ5PF5nZyeaIZFIxDCZTMPDw0qlUiqV9vb2CgQCPp/f2dmJTG1qamKxWBUVFbQKFxKgtygoKEARg5UVERQXF8PNaH6Wl5cXFxfjlMzTsSK0lGMVcAB+iQviMyVZXl5eWVnJZDIRBbQfhHTUVyAgA70fesvW1laa1iwWq7q6GrFOcxpkcglgaIhGRGZ+fj50Ky0tLS8vr6ioKCflq6SkhApYUFCQyZAu0+MPdLFgp/Sa0I3FYtXV1TU0NDQ3N3M4nLa2tvb29s7Ozq6uLmG61xeLxYy2tjYul5tJDH6FKEdIFBcXFxYW5ufnpzvN//wLqvQnLPHxvVLpMrWi4mR+QNCibaAlHotF7QQxSXUDN/TfIpEIWScmbx4wnj17BoOiuoFedXV1ZWVlZo4VFhYiGvMz8B+ipNv+B3qZUQdBMpk85lNOAI+lexQ2mw3RUMGRbDQgRSJRX19fPwHe0/qPeijT9fX1demCg963rKyM1tnHcUWZUp4I0ccCPqBHuUGiMgJQglbwRmxEWCwWdh4NDQ1NTU0ISHQnNCCx80Q9kEqlMgIG3ZK1traivNCSymQysROhKUR7SNwr9Hwg6WNiNDLhJSD2mB5YZZpnTU0N/KOOtNdolTgczgMXoaJJJBKZ7K8p1tDQkFwuZ6CA0gxsbm5+EKUgCZ9AMci8P6QNeFLOv/yAI+m5mdFIpaPcqH+gmYRo2DFnZppQKOzp6RGnXxkEJYVCoSRQqVQMlIFMDVtaWpqamhobG+vr62tra9lsNpPJRCrCSFHN8BN3SW/6nz/A3Onp6D9oQKKiZsZkZqZlckNlE5FRCLjJZDL6LqSGQEvAEAgE6IPa29vb2towO8g0G5BksViZJLHMCFpacDOzCIL8w0+wgnOAEhRjkjEHko26CLghJmmy9fb2isViGpB4CVmj0WB4qSOjUYZQKKQMEahoi9DjQkaajTU1NSCJzTUys7Kykpa4x3woDfoBS5NJjBoj6V7uWzYkG8paa2srJ51vtCOBkcAeBzNesKb0RkZGDAYDo4dASKY6kJF2tKgZra2tGI1QU2Wz2SwWC7082FKeCDBKAByq0qDhR+V6QAz2CNFQ1lpbW7lcLvKNcoNuv+SmTU+1R8jUlCFOv/Hd09NDlXwcriAJ12loaABVZCaoMjNAtUXrSL/Bf0EpMwgpq/r6+gYyd2tubn4ckAKBQESqNvUSqptarc7UTU9wr55EIhkYGOjv7xenX/0WEXR3d/Mz3t1HWnI4HNQPWkIoT1BlEyDG6FYN/838icMyg7CRbP9R02g0PjBJtCP9ZKcjlUrhk0qlUqPRQDQoZjAYRgmMRiNDRiCVSjN59vX1QUxMbOCuHWSziBICntRjGx4BtOseoT4NqAQ+LS0toERzrL29vaOjAy6SKZpEIpGSdyHl5DmUSqXKFA3E0o9Y7sdKjCGCwcFBmUyWSbKvr6+3t7enp0ckEiFoM/XM9NhWgpa/o5nUz6ZfoZmAUuJyuc/IEIHH47WTthjdo4AMwnt6emimyYj7wyHVBFqtFo9uqGJ4OGMhMJvNDHkamTwzlcwk+VhMHgHYPssAl8uFwvAGbhr0EOxZeTweVOKnx1vCdL+P7vGBf1CtSHLpR0fvn1jR+d8YeXncYrFMpMFI/R27u7vJZHKHYHt7O5FIxOPxra2tGMHm5ubGxkaEIEywQbC+vh76O4LBIF4OWFtby/xmPQM4F1fDixLRaDQWi20RxOPxHfLa0s7OTiqV2t/fPzg4OCLvZp0QnJ6enhGcZ+Di4uJFBv4H+3FmqcbSzM8AAAAASUVORK5CYII=;" parent="1" vertex="1">
          <mxGeometry x="81.99000000000001" y="306.58" width="74.01" height="60" as="geometry" />
        </mxCell>
        <mxCell id="lupZfDlFWK5aUlkw8QFh-12" style="edgeStyle=orthogonalEdgeStyle;rounded=0;orthogonalLoop=1;jettySize=auto;html=1;entryX=0;entryY=0.5;entryDx=0;entryDy=0;" edge="1" parent="1" source="fBQ9f3TqxgZIcAiOvmAp-3" target="lupZfDlFWK5aUlkw8QFh-10">
          <mxGeometry relative="1" as="geometry" />
        </mxCell>
        <mxCell id="fBQ9f3TqxgZIcAiOvmAp-3" value="" style="shape=image;verticalLabelPosition=bottom;labelBackgroundColor=default;verticalAlign=top;aspect=fixed;imageAspect=0;image=data:image/png,iVBORw0KGgoAAAANSUhEUgAAAEsAAAA8CAIAAAChC9DEAAAVR0lEQVRoBZ1bZ3MiV5tFGqEIkhBJIBAgMiI0OTU5iiyiSEIaTdJ4PeUqVzmMf++uvbve9f6ELZ6jvm+PxjP2+54PPZemkfv0efJtS3799dd//yv8h4Bff/31t99++08B//UZ/vur+J3wPwL+l/CHgP/7KoSr/sCv2PGPP56fwVf4j/z+++8Sj8ej/zLOzs4MBsP5+bnFYnE4HH6/PxKJJJPJTCaTz+fL5XKtVqsTrgiNRqPZbLbb7S6h1+t1u91er9cnDIfDyWSyWCzu7u5evXr15s2b9+/ff/jw4bvvvvv+++9//PHHjx8//vLLLx8/fvz5558/En7++eeffvrpxx9//OGHH77//vsPHz7gV/8m4Ntvv8USi2+++ebx8fH169f39/fL5XI6nUpOTk4kX8bGxsbm5ubW1tbu7q5cLler1Uaj0Wazud1ur9fr8/kCgQBHCAaD4XA4FovF4/FkMskLyGQy2Ww2n88Xi8VKpVKv11utVq/XGwwG4/F4Op0ul0sQfvv27ePj4zcELN6/f/9IePfu3evXrx8eHlar1YwwnU5vBExEGI/H/X6/3W7XarVisZhOp7/GcIPw4sULqVQqZnhxceFwOFwul8fjuby89BL8fn8wGIxEIrFYLJFI8DyfIYAeGFar1aurq3a7fX19PRwOwRCSvn79GgzfEx4fH9+/f//u3bu3b9/i+OrVq5cvX65Wq/l8fnNzMx6Ph8Ph9fV1j9DtdjsExi2bzSYSCY7j/oLh5uammKFKpdLr9efn52az+eLiwm63OxwOp9PpcrkuLy8DgQBIxuPxdDrN83w2m83lcvl8vlAoiDW8vr4eDAaj0Wgymczn89VqBaN99+7d4+PjO8Lbt2/fCAC9u7u75XJ5c3MzGo2ur69brVa9Xq9Wq7VarVqtVgilUonn+Xg8HolEOI5zu91fZLhBYAz39vbkcrlSqdRqtTqdTq/XGwwGk8lksVisVqvdbne5XF6vNxAIhEKhaDSaTCZTqRRPyGazBQL8ttFodLtdRhKGen9///DwACXfvHkDm3x4eHj16tXDw8Pd3d3t7e18Pp9MJoPBoNvt1uv1fD6fTqdTqRSeYzabzWQyqVQqFotxHOfz+Twej91u/yJDiUTCSG5vb+/v7x8eHioUCrVardFowNNgMEBMq9XqcDiYjKFQCLYaIyQSiVQqlU6nc7lcuVyu1+vtdrvT6XS73X6/Px6PZ7PZcrlcrVbg+fDw8PLly/v7+7u7u9VqtVgsZrMZdOt0Os1ms1arZTKZcDjs9/s5josSIpFImBCg0OD1ep1Op9Vq/RpDBKCNjY0XL15sb2/v7u7u7+8fHR0pFAqlUqlSqXQ6ndFohJI2m83hcHg8Hp/Ph/9GKBQKBAJ+vx8fOY6LxWI8zxeLRUTgWq0GPQeDwc3NzXQ6XSwWt4TFYjGfz2ez2WQyGQ6HvV6v1WpdXV1Vq9VCoZDJZKLRqN/v9xA4jgsGg36///Ly0ufz+Qkej8fpdDocjr9mCDE3ySG3trZ2dnb29/cPDg7kcvnJyYlWq9Xr9eBpMpngnC6Cx+NxOBw2AVar1el0+v3+aDQKSROJRDKZzGazlUoFARaeOSYMBgMEEnCr1WqVSqVQKPA8n0gkIODl5aXH48FD9Pl8+Ojz+bxer8fjcbvdTqfzbzEUZxNIurW1JZVK9/b2Dg8PT05OYLoajeb09PTs7AyhyGKxnJ+fn52d6fV6nU4HwzaZTA6Hw+12gz9kD4VC6XS6WCwi0rYJjUajXq+DWLlcLhaL+Xw+k8kkEgkEklAoxHEcwhsyViAQYDKC8N/VUMyQmS6oIpEwVY+OjkAY2up0Oo1Go1Qqj46O4MYqlQpf6fV6LUGv15tMJpfLxXFcIpFAWCqVSsViMZfLZYVozPN8MpkENzgeci9cPR6PR6NRcEY8D4VCPp/vX9GQMYT1vhAglUr39/dlMhlInpycaAigd0A4Ojo6Pj6GGyuVSizUavXp6anBYLBYLOCJW4cl8zyfy+UQJBOJBGhEo1FxDAP5WCwmZh6NRoPBYCAQ+KetVKznBlU8mwSpVLqzs7O7u3twcHBEUCgUx8fHUE8ulx8cHMgEHB4egq1SqRTbttVqdblcKB4QjdPpdD6fz+Vy6XRarGEsFksmk+l0GiInk0kwRNxOERKJRCwW+9cZslzCgtAWYWdnB2QORZDL5TKZDErKZLLDw8Pj42PQ0xFYTLbb7R6PJxAIRCKReDyeSqUyBKS+VCoFniibUEvk8/lUKhUnwM5h3jzPf61qAwGxYuI1oycY6fpfUGV5BUygoYjsWj3YJxzSSDBTkYSUc3l5yXFcJBJJJBLpdDqTyeBeeaESTBNQ+sNdIRp0LhaLhUIBJDOZzBc1/BJDxg18xAy3tra2t7dhq4g90EohwsnJCaTTarVwP3Cz2+1Op9Ptdnu9Xr/fHwqFUPrlcjlwyFAFnyNkCcVisVwu53I5VE4oD3meL5fLiLp4IhKlUikWh62/xFBc62x+ChQGOzs7jKdMJoM1qgkohk5PT/V6PbIIqiKbzYbK1ufzBalHiUajPM+jXq9UKgitKG6xRpWLDPks/BYKhWw2C6vmef4ThhsbG3+H4Z+SRNQRS7q9vX1wcKBQKECM1XrihIlyjxXuKPcQQkCvVCqVCSUC1uVyuVKpoNpGnsS3RQIYQti1lYo1/ApD8VfPGDK1GUmY6+7urkwmUyqVEA26oZ++oL5EbJYcx6G9BL1cLgfFCoUCSIJS7TOUy2XQg+/BVmHMiEP/HEOQYcfNzU0xczBEDYCy7ujoSK1W64VGxEQwm80wSxSx4MYiJxIgehF2LJfL1Wq1Trj6FCh6SqUS8z2QhJdWKpVPGDITZSrhjJgSCzDsJEiKSxykRAQVrVYL3SwWi8lkQkFns9nQiITDYZa+UaOWSqVKpcKsEV4nFrBerzebTYxLsECXiIAEelC+Sq2jRKVSfX6v4jMs3UkJCJU7Ozv4iBwIs9zb25PJZHK5HCFUpVKdnJygBTmnSY/NZrMTMPIJh8PIB4j+2Wy2VCo1Go3r6+t2u426tEqo1WoQsF6vNxqNVqvVJLBFvV7Hc4FzwrAh+5qhOCJCCgSMzc1NVNioV0AA5cjh4SGS+N7eHroqVoKzUGkwGPSE8/NzK3XJbrcb5T8KFzQZmUwGboMHj+4Rt95oNK6urnBkJgqGrVar3W7jMhxhvOyHELnVakk0Gg3TAQupVLpNgEftEZjhIe4rlcqTkxOFQoHiC1qJ8xso2QhoIGCWIQISejKZzGQyhUIBNlkh1Gq1q6srSMSOIAm2zWazQ91zl9AhYN3r9fr9/rUArCV6vX5bACxwb28PZdfBwQEUQwmCEhl57PT0VCtAR0MNhEpEEacwufHSPM7vXzfBIZpuJBKJJAElJeghQNbr9aurKxwhEe4bWrUIbUKXhiB9AugMCMPhcDweTwg3hPF4LDEajfsCZARUVYgTSGIIhggYZoJJgNlsthBw3krjDLfb7RM6/WAwGAqFEFESiadxRjabRbqrVCo18jGmD5h0Oh0I0u/3mT49AZjxDIfD0Wg0JIwF3NzczEWYzWYSs9l8JOD4eN3aQCudTscoweTswmTN6XQ6CNDKRXASWNkVpNIkEolEo9F4PI4sB5cDt1KphEgg5iY2v16vB32w6Pf7EArHEc3pINQNTUBmhMVisRJwS5BYLBaFQgHF1Go1quGzszPxKA0FsdPpdLvdHo/nUoCP5gVeAkKIz+fjOC4UCjFu0C1DVSVSMDIVoweGMEswhFSgB1OEXCMC1rBGcMNxQTOe1Wp1J+AfDI+Pj0+ESQSkMxqNSFxWq5WCxfrAimOB4Hrsw9YeAupmeB14skaO59fj06zQs7OM/Ixqs9lsCwBhZpPD4XAwGPT7fUZYzBMMwWq1Wt3e3i6Xy9vb2ycrZWNChI2zszOj0ch8zGKxXBBgrs+M00FDYfFJN2UFsGXlWJxsNZlMpmiOCostiIqyCgGE6wQmb7fbha1iI4TJOxgMRmSu0+l0NpstBCyXS2G5WDOUy+WsH9UKgJgGAtpTEAbVi4sLq9V6cXEB8lYC1MZ5m80Gq2Y8EUtjBEwomFvmcrn8nwENRI3yB8wYcbXdXo9bWTRClIGtzmYzBBq45TrSmEwmmUzGSGq1WrVarVQqVSrV6empjnB2dmaiSSFFTYvZbD4/PzcYDDqdDmqfE0wmE3sKmB1CWI/Hg7QBF41Go5iXQVW07TgTjUbDBObGyWQSbRSqOeQVFC4Vai+ebYSA53Q6nQh4yoc7Ozt7lAZRrOwT5HI5ErpCoVCpVBqNRqVSIdcfHx8fEeDDJyfrvlYtjMNPT0/1NESFM19cXEBeTP7BU8wkHA5zHIeRrsvlYuLDnzFHLhQKRYK4f89ms8VisVqtNhqNTqczGAygJ/PY6+triVqt3iS8ePFia2tre3tbKpVuEdDIsjIAtPcE7BL29vZwnpUH4IwnAqrIOihN7XY7vNRH8FMxwIa5TqfTZrMhvLlcLkx70e/DsCF4MpmE5kzhcrl8dXXV6XRQx/R6vU6ngwpu3VtsCJBIJGiIcGJzcxPTFyy2trakUimjvU0Qn9nf35fRlOno6EhBGYilH4PBwGZNIOBwOFwul5vgEsHpdFJx/jTUENd6oVAoSID+4XAYPReakjLtiDQFoBYvlUpPlfcLgsB0/S9Y4Tw7SqXrkSGwu7u7s7MjVhstLwq9o6P1aFglzH+fxSpG0kFACQHCHo+HGSpyL2KV3+9n6Rf6BwKBYDAYCoXQo6DExchD3C7+eeUtJYAJ7BZa7e7uCkb69C+uYbbKXBe2qtVqz4Qhv9lshkOy7OJwOOxCnSQWk+VYn88XIHAC8BFHBGe0lwmaymVpGy+fz2ezWZ7nYdLrSAM1mL8xDvu0AwM3YxZ4eHgoE+FAgNg+EXV0FGnhfsguqBmYcXoI4MZKJURdRoyZZYQ2z2CoHMcFhaoQUTcWi8XjcdRPSLmgF4/H19lCLoxr2V1ivHkkgkKhQArBNF7xKY4J7BpUtggwFosFNul0Ohk3qARj89I+ESMGteBpsEDGIRaLgafYD6PRKC6AmIxqgrCeeVutVnR6x8frspvRYOlBRdBoNDqd7pSaJo0IWoJarcZlWpqCitUDPQftNzHzY+mR47hAIOCnjU7wwd3jdqOEGIElTPFX4jUuQ5GYJDxN9Z1Op5qg0Whwf6CBu9Tr9fh4SttmZwQ97ZbpqC1EI39KwE9YTQv1YJkwQogG73qWFWOxGDhABJgcjlCDHdkF8S8AM5E0vUiQSqUkLpcLOmi1WtyiwWBAmwvRGEO9Xg+GCP1Go5EtwAqlLMIJk85FaQ1b/HAq5kJorBKJdU+MdCe+OZ52HVIE3C7OIBmSSE8H9hfwOU0bAagEs9nsmiEUAE+QZI08WD0TDXzOCeZPgTGhW4DH4xErJnaYZHK9c4SbxiIjDGxwc3nackJUzGQyWQGZTIYn4HFgLf472Ww2n88XCLlc7omhjgCqegFMUqaqgXB+fm42r1t7yGUTAdNrr9d7Se/ZMFMEN1gdFMtms7nPgDtj95cn4CrxSfY7/BE8iwwhl8sVqL4r0R5rPp+XOJ1ODe1Ow69OT5+qbXBmBRd2iEwEi8WCnhh1CRK0iwoUcXYOBAJhGociHiCUw4TYY0apyQpOPHhGBh/ZNSUCtpbwFY4gwy4u08y/Uqlgb3wdS5XUSSDMwFZZ5DCZ1u0CYCE8y2nQykvw+/2BQIAjBKnagKdBNJ7nGTE85vKnABPQYEd2SaVSqRLK5TL7Fgv2VbVarQlTn7rwDsB6inF8fIxeCe53dnYGazQajRcXF1YBiPiom0EJ8QP5N0STi4gICI+MXj6fL9E8GzeEW6mLUBMAJpXK05AKl7Dra/QGFMjgSvGZen09sMPMDrNwycXFBZoj9AFsAGUymRDuHaIW3iN0ekwuaAV6sMYYAbt/2MGDb7DRE+64KUKr1Wp8Ctxlo9HAVeILGAc2esQCzwdjAfEQWWK321UqFaoQRE5YJpzNTq9zeQgwSGRnEAsTIpEIy2YJCv3QLUsAPfgGuLHZRIvQJmDdarXw8Vkv3+l0xOdxsegRNRnbZrOJP9IU9jbWsVRDQE5HLw/DRCD5XLcQlfMIj+CGbIYjT8hk1i+gwvthnNVqlT1+dh/tdrtDwKLb7fYEYH19fd2nMTZOd7tdXC/mjMfBnhd+2O128VDWb9CyIgavfNiE/RMk60t6lQrOhmTNrDEej7O0BmKIJYjyBdGUCfRgiYwe7pWxApk+YUAvROHMcDgEyWtC9zP0ej18hcVgMBA/FInP50P+MxqNYsdjmQ0JQFyIIO5TsZFinsZYFQml0nrvVhxUYDzPWPV6652G4acYjUaTyWQ8Ho8I4/EYJEGeHfFOGJ7CQIQRDcLZCQnHcch1ZrPZarXa7f9orlGOPNNNPP/MEKAbIyZmJQ4VzHiwYHcwHA7HhIkI0+n05uYGPEF1SMPSwWDAFvgLeDh4FuyJsAc0HA4lkUjESnNBbDnA92CZeCcCgSRO3RdskmXtHCFP/lYmVCjEN2iLj4WNTqcDVrAliABWON4QpiIsFov5fM54TiaT0WgEekzb4XA4Go3ETwd/B0eQXDOMx+Mul8tBcFFdgr0HjgCXE/sbWOVyORArFoswSCSoOm3QghJYIUIwH8NdjkYj8d3MPh1yzufzJQE8Z7PZdDplxJiw7OngycwEsOcC85akUin0oJQR1gev14tBdTgcZtwyQu2LxI2CCEESuRibfp3Oes+IefyA0KdNFbEhTSYT3M9UmFWLKS0WC3xkJ0GSzUJhwJPJBD+fi7BYLEAY14xGIwnP8+Dm8z29e4qMhykIKyYxmWSbKtVqFf7GMiwLJKDX7/dBCW4Dc2L3BHrz+Zwtlsvl7e3tSoQ7wmq1Wi6XsFhIvSCA83Q6nc/nOAOaTHbYyHr/MJPJgBtHCAaDHMcFg0G8dAXHAz1mjSytsdwNs2TqITyyCIHYOJlMbm5u2F0yUwS3u7u7ewHghk9Y396ut1nEYEyY4DizpB2LT2be+Xye47gQJXHUKCjBYJ8p2kXJ0atX5XKZORuCJHTrdteva4sDPigxj2c2iYeNo1ixu7u7lyKALTtxf39/Ry98i3/COLOT4I/zcEUYqqRUKkUiT/uY8Xg8FouxhoAJmM/n2f9LAAGbzSarQq7pf55AAGDxg3kI7BBPmhne7e3t/f094/Dw8PBKhIeHh5cvX+Lkw8MDGOK3TGpwxm6h+BHc3t4u6M13eONkMvl/XS3jtTc7tusAAAAASUVORK5CYII=;" parent="1" vertex="1">
          <mxGeometry x="81" y="426.58" width="75" height="60" as="geometry" />
        </mxCell>
        <mxCell id="fBQ9f3TqxgZIcAiOvmAp-4" value="" style="shape=image;verticalLabelPosition=bottom;labelBackgroundColor=default;verticalAlign=top;aspect=fixed;imageAspect=0;image=data:image/png,iVBORw0KGgoAAAANSUhEUgAAAGIAAABNCAIAAADSPSa6AAAgAElEQVR4AZ1cd18i2bb1C8zczt22rZgQQSUoOWeQLCAqmADFgAmzbWxT23bP9IR7v++b2svac8Se9+7vrT+Oh6IKOavWjnW0ZeYxpgnFYnFqamryR5giFIvFUqk0PT09MzMzS8DHYD47OzszM4OP4rFE4Je4tumqubm5+fn5crlcqVQWFxdrtdoSYXl5eWVlpV6vr62tra+vbxK2HqPRaGwTdgjb29s7Ozu7u7s7OzuNRmNrawsn7MrY+weIl2wQ1tbWWgyPodfrdTqdVqsdHBwceAwNYZAwNDSk1Wr1er3BYBj+EQwGg56g0+kw4RG/ENfi8hGC0Wg0mUxms9lisVitVqfT6XK53ASPx+P1ev1+fzAYDIVCkUhklBB7jDgh+QSxWGx0dDQWiyUSCbyZIqTT6VQqlZaBg6lUKpFIxGKxaDQaDodDoVAgEPi/aQIvImM4otVqdTrdY5IfXoFr0K0l6GQws3whk8w0Wa1Wm832lCafz+f3+0OhUFQGFv+YqwcuEgSQEovFwGA8HgcFmIjn4MxEIhGPx0FQMBgMBAI+n8/r9f5/aBoYGBgcHBwiQcnLlwQoHsFLPo24eqAVvLAMR0ZGhoeHDQZDE00Oh8PpdLoJUFOToGSupJ8QF1iLx+PJZBILhnzi8ThTGY/HcTIu5zmuHR0dDYfDARl+v9/j8bhcrh/TNDQ09E9GpyE0rR/nQ2VDBL6czxwaGoL6WD6wNR5/SJNTNj2v1+vz+QKBANsd1hmNRiORCDMVI+GAI1ADjkZHR/l82FEgEID9wrLC4XAkEgmFQsFg0O/3+wher9fj8Tidzr9p4psMIcDKQMrTcWBgAHSIhOI0EIS5qDsICkYnWtzIyIhRBvsmm81mt9sdBGgKNPn9fiwPq4oIgC5ADZxRVEAkEmFHg8WzNmFcYD/0GFCVx+N5oInvsF6v/29o0mg0oEBkU61Wgx0en9IEjw6a4NQNBsNTpuCemCmXywW7g3vCkkSmwuEwCwr6ChOwaibI5/O53W4nwe12gynZwgLhcBhuPp1OZwjpdDqRSEQikUc0ITwxTRqNRv1fo58ApnARyGpiigMfOzWQBZWNjIxAUKAJmrLb7Qh5zBQExRSAEQgLjLDt+GVAQeDITnA4HC6XC4YM60smk4VCoVQqzc3NVavVxcXFarVaKpVyuVzLyMgIvCl8hKgm0NTf368i9P0IeEulUvX19SmVSpVKBb6YNRAH0bGdsqnCc+ElOy+j0Wg2m60EMwH5AfyUx+MRnVSIwCYDC/L7/cyL2+12uVxsv/gQF8Hr9SJuplKp8fHx6enpcrm8vLy8vr7eaDR2d3cbjUa9Xq9UKi0mkwkWB5oMBgMC+dDQ0MDAAJgCC8ySUqns7e3t6enpFdDT09Pd3d3b26tUKvlMvhD0sb74BvT390N6oFWj0QwODmq1Wr5zELjBYDCZTBaLBYmC2+2G9Ym+VjziJXgIoIlDAa4NBoORSCQej4+NjWWz2YmJiZmZmfn5+UqlUqvV6vX61tbW9vZ2o9FYX1+v1WotVqsVd89sNptMJpCFIK3T6UCWWq3mBUM1oKmb0NXV1UlQKBRdXV3d3d09TyDSpyKASuZUSejr61OpVGq1epAAlcEPIpsdGRmxWCwwQ2YBRFDm4IZhgiYe3e6H40hQo9FoKpXK5XJTU1Nzc3PlcrkqY2lpaX19fXt7Gyk6aFpeXm6x2+0WiwWatNlsVqvVQQkLjo+MjOh0usHBQY1GI1qTSqVSKpU9PT3gSKFQtBM6OjoUCgVYY/q6CEyfIEFpCoJwEArt6+tjm2WT7+/vHxgYgNCMRqPVarXb7XDGPMKU4JvBESSGMRgMwtOn0+nx8fFSqVSpVFZXV7cI9Xp9ZWWl0Wicnp5eEc7OznZ3dzc3N9fX11tcLpfNZsNHI5Xy+XywcI/H43A4zGYzk4WbjFGj0ahUqt7e3u7ubtD0gcB8dchQyBC1Bl5YTRApKIPQICvRJOHmYJXDw8PwXxwN2aygMsiqKWtHNMxkMnDV1Wp1Y2Pj6Ojo+Pj48PBwf3//7Ozs+/fv//nPf/7444+7u7vj4+ODg4P9/X2JJqvV6nK54PMQU+ARA4GA1+sFj+zCDDL0ev3AwABk1dXV1d7eDpo+fPgAppgv1lc3AZIBQfBZarWa/SB4wREYmp6gfQxk7fBWsEF8czHGh0Kh0dHRZDI5NjaWy+Wy2WwqlcKRbDZbKpUWFhY2Njb29vbOz8+hoKurq2/fvv3666/39/fX19efPn26vLy8ublp8Xg8HHFdLpfdbrdarR6PByGgiSmERXxvnU7HNHV3d3d0dDA7soykn8xRZ2cnuyx2VXBDMCWdDHw+uyF2CBaLxSzDQuWxmDGAINxgpFScBOXz+SlqeOTz+XQ6nUwmQVO1Wl1dXd3e3r64uPj8+fPd3d3Nzc3t7e3V1dXJycnBwcHHjx+vrq7u7+9bRkdHfT4fQqbNZoMjt9vtgUAABY7X63W73TabzWg06vV6JNkDBLVa3dfX19vb29XVpVAowI5sYQ8eqrOzs0sGdARz6+vrU6vVQ0NDer1+eHjYaDQi4MLvOBwOj8fDLQGUF9C7R4bL5XLK8Hg8gUAAnYMwIRqNgqZkMpnL5SYnJ4vF4uTk5Pj4eDabLRQK09PTlUpleXl5c3Pz/Pz869evENHt7S280jp1bE5OTu7u7lpSqVQoFHI6nVar1Ww2G6mbYbFY3G437gy+jcVigZX19/ez72hy5CIjMjMPgY+p4VxBrVbr9XqEeUjERLDZbB6PJxwOj46OoohNUa8jmUyOjo5GCFECuENOEAgEYrFYmrJnlPioXVDQplIpRP1isTg9PV2SMTs7W61WV1ZWTk5Ovn79+scff3z//v3r16+Xl5d7e3tw6nt7e7e3ty2RSMTr9TocDovFYqJ2D/hC+HO73WZqAA0PDw8ODrJ82L9wDoVABjrYPYvGBQHyqNPpbDYb2hROpxNhC5EkFAolEokUIZPJjI+PswoymQy4GBsbS1O3KJFIjI6OJhKJfD5fLBZLpVKhUEilUtwPAbOxWGxsbKxYLFYqlaWlpXK5PDU1VSgUpqamqtUquPjtt99+//33P//888uXL6enpzs7O5ubm4eHh5Ka4vE44hrIAkegxkaARxgeHtZqteyMEJJ4BB0qlWpgYABJlpIyck6CDAYDAhNyDtyDaDSaISQIY4RsNpvP55mXbDaL4F0sFicmJsbHx/P5/DhhglAoFPL5fC6XK5VK84RisZjP51GLhUIh2EQkEkkmk+Pj43Nzc6urq7VaDVUILlxbWzs9Pb2/v//tt9/+/PPPX3755fr6+uTk5Ojo6Pz8XHLh7NWi0WggEHA6nVgJOAJrcBycQKnV6n6CmHOqVCqNRqMlICkdGBjQ6XSI3A6HA8kLSnykMNlsdpKAZRcJpVJpdnZ2fn6+VCpNTEwUCoWJiQnIZGpqCtSALySH1Wq1UqlMT0/Pz8/XarXFxcWZmZl8Pp9MJqPRKBoDSJeQcyPhnp6enpychJrK5fLa2tpfUf/i4uL+/h4e6ubm5pJwdXX1+fPnllwul8lkkslkLBYLhUJer9dut4Mj8AVjNBqNBoNBS81feHGNRgPhqFRSHYekBnWZXq83GKTmr8XykDH7fD64EjjaeDyeyWSKxSLu/yyhUqmUCZVKpVqtzs3NzQgN9ZmZmVKpNDU1BcpQf62srGwR6vX68vLyysrK0tLS/Pz8+Pg47I7bTLFYLJlMZjKZXC7HepycnJybm1tZWdnY2NjZ2UFcu7u7u729vb6+vrm5+fz585cvX6RIB9uORCJYBkyPmbJarTA61DEojEXJkKoeOEJVgfoLWTI3K6D8ICESiaRSqUKhgDpzdXV1ZWUFi1xeXq7VagsLC9VqFZSVy+X5+fm5ubnZ2dlpwuzsLPxLvV5vNBoHBwfHx8cfP37c2tpaXV1dWlqqVCrFYjGXy6VSqUQiESOAI1Rw2WwWZE1OTlar1QZhe3sb6eXV1dU14ebm5suXL18JLciMPB6Pm+ByuRwOh50ANZmp1jMajdyNRTmKCnlQAHp1JpPJ6XTCxAKBQIgA2eMbJxKJTCYzNTW1tLS0ubm5Tdja2lpfX6/X60tLS6AJmoLEZmelRzUzMzNocdTr9c3Nza2trZ2dHbiPi4sLxCawXKlUSqUS/AlFgpRI0Pj4eKFQmJycnJ6eXlpaOqA8e3d3d29v7/j4+JxSTSRQdwTJ6Hw+n8fjcRHkLMQJpiAlkwCzAJPJBO4MBgOKZFic0SgVXEh8vF4vV1JgJ5PJjI2NId9bXFzc2NjY3t7GM6LV1dVqtQpDm5+frxKgptnZWdSoCwsLS0tLa2trW1tbe3t7R0dHJycnp6enR0dHjUYDalpZWcFkfn5+cnIyTw4+n8/DzU1MTExOTpZKpenp6bm5uVqttre3d3BwsLe3t7Ozw4K6vb39TLi5ubm6umpB9iimak6nRBMzZSUg38VxvAWtwccjO9fRsyZ4JaPRiErC7Xb7/X50LcBRLpebmJiYnp5eWFhYXV3d2NjY3NxEW6dYLCKWFQoF+CAoCC2OhYWFxcXFWq22urq6ubnJN//8/Pzo6GhrawvGW6/X19fX19bWlpaW5ubmisXiFAHUwA/iAxcXF+v1OnSEnPvs7Ozy8hKOCcXKp0+fLi4upGKliSPWFE+gNTgaL3XRuYkDTq1WK5wX2yYSa7PZ7HA40P2KRCKxWAxJI1wpgk65XK5UKvPz88VisVAoZLNZZAlICxDCQNDi4iLssVarbWxs7O/vn5+fYzGHh4fb29ubhEajsbW1tbGxsUZYXV1dJqyurtbr9bW1tXq9jjnybHJNUhPu+PgYHP0ln4uLi1PCGeGBpiam3G6pQcNFtl9GgMDNMDggNJgdDgcUB1O1Wq02mw0coQcWJsBbRQliXZqj0hQcwfWm02nwiFYZnA5scGFhYWtr6/j4+Pb29uvXr9fX17Ca/f39w8PDjx8/Hhwc7OzswCqPjo4OCHjr6Ohof39/d3d3Z2dne3u70WhsEBqNxuHh4cXFxdXV1adPn05PT4+Pj8/Ozv6S0l/4myZmyiX057HCSCQSDodDBJ6EQqFwOIwF49kWyPQRAoG/O/BJQiKRiMfjqLPi8Xg4HEb4QyGG2iIej+O0aDQaj8dzuVyxWCyXyzVKiMrlMnz5wsLC7u7uxcXFt2/fvn//fn19fXh4eHBwAFcFiV1dXV1eXn769On8/Pzs7Ozk5OT4+PhEBpPVaDTW1tbWqau7v79/cnJyfn7+6dOny8vLq6uru7u7z58/S8UK+2+Xy4VgB+OCUkKhEOcKnBny8mKxWJwAa0K1iTIqkUik0+lsNouqAkyl02k0emZmZiYnJ6EdFB9pqjxSBCRxyHTy+Tz6Z+VyGWlBuVyu1+sHBwdY8sePH/cJh4eHx8fHqPV//fXXX3755e7u7vLykoxGGrB+EPfx48e9vT00J9fX1xE0kVucnZ1dXV3d3t5++fLl27dv9/f3UqT732kCI4FAAMUXuAsEpGeK4XAYjMQeA4pIp9OIwXiGgxqN+6oI86VSaXJycmJCSrURj7KEsbEx8IWCbmpqanp6GsEOqfbW1tb+/j4MbXt7G4uEFm5ubr5///7vf//7zz///P79+/39Pces+/t7LPvq6ur4+Hh/fx80bWxsNOgBAdN0cXEBJ3V7e3tzc/OXF2/xCw8hJG9E8Hq9zEggEMA5OAiOWFAoLGF6GGFWqVQKnjiRSMCgEokEGhooR2ZnZ0FToVBAcwPSw1Vj1EgbHx9H/AZTMzMzyEiRbTUajU3qwMITI42+vr7+5Zdffif8+uuv3759+yrjG+GvOvbi4gJq2t7eRpzd3t7e3d3d398/Ojr6SDg+Pj49PT0/P0e20RKLxUSzgn9hVx0ksM8GR3BS4gj3jBG+BpoCR1yjI8AhuwM7uVwOVplKpZL04D+RSCBjBkfQGpd1c3NzCwsLy8vLiFYrKytI35FY7O3tnZycXF5ewqHcEG5loEw7OTk5PDzc3d1l/725udloNHZ2dpAZ7MmAYPf39//q27Vks1nYRSwWi8q1YigkFdYM0OT3+yEieHG8C7KCwSCrjM8BO3gLHh2hjZ0R/BG7dtRfkUgkGo0iF81SVQFaJwiT1F1DljBPKBOq1erS0lK9XmcLwmIPCOS79uGM1tbWkA3Ac0OJW4RNyuwbAra2tiBYqd/ES8WSQIpXgGyL0k+YHsIZDJNNEleIZssPoxE9RaJBB0a+PaIeReOF4sAvXB58WT6fB33FYlFMRCsCyuXyPFWFoHWOKupZakJUq9XFxUXoEcJcJaxQHl8nrFLJKT0yEJ/koOjFSOm31fYYKPcwOhwOpKDIy/GQQzwBnXV8Dn4Lx1ORcVi63+8PCBBVGaUdWZBnVACoRHyAU2PXxi85hmaoTsKYy+Vg1OCXhYnYMj8/X6lUFghVQotZbuyaCEYZKHRHhO0iTXO8bLrKJBd68sdIBTOfaTabLQKQfzoITqeTGeQJqBT1y4RiEgwGw+Ew6BNH7p9wLIavTBJSBOarUChMTU0Vi1LnE0BgLRMq1NV52ENgIAwTMNfr9TqdzkBto2HapoUjOhlarRZFnJ7An2AwGHBEPM7vilybzWYIzUopOz9xayIONDFBAQFI60BQmIA5Yiu0xtSAlzEBWeqUivF0amqqVCrB90FHtVptZWWlZXh4WC930ZgOZgTLY+K0Wu3Q0BAI4kIXVBoJrEEUw5ASjybqtbOewAvMlhXkIiDFRWUjpulYP48xOb9FlgvJJChWJpPJVOqhfwKCOCBwTICIQA10BAdXLpfRilheXl5bW9vY2GgxGo0Q0fDwMG41r6rpuNEoWZDJZLJarQ7a9YLFeAk+AvoNbtpDBJtiLnCyR4Z4lZ92VCKSIMhCJqiTsWzOGOJU8cDrR2k7IRSEeYwAvlKpVFqGyBREVKCWk2hl7JKq1eoCdSOQeUg7efmZCtwKbrjVauXeLnhhP+5wOLBg8ILsHKk8HpA02Q7cPC6BV2YiEFg5k8AEpSJG2BG8D+ahUAglAX4jSvQm54XkIxaLJZPJdDrNtpahpzLw6CgS0IQolUrYjoLAt0RYXl5eoXiHDKPFZrNZLBazDJPJZLFYcBB2hCOwFPhgOBTmEaaq0+m0BDZGUYz4EJFBp9MJHySObrcbe5dAWYAKANwJr9zAcTgc3LeBBfCNRDD1eDzBYLCJpkwmk6KeL8wTDHJVgKZorVZbWloCQXVqWm1ubu7u7h4cHEguXASbHh4Q8MrhlQYIGvlhAfZZdHd3d3V1dRK6u7t7ZCgJfX3SXpz+/n61Wq2RtyIODg4OEfjzQa7RaLTb7awRbhki4eCbh++Gh11q2n+go2hjpF4gWsyRSCQme64EAfU5LDQWi6VSKTz+LRaLSO5FjlAPoRXzV0XdwioYGhoaHBwcoK1f/fRot1cGNugoFNLunA8fPrS1tbW2tr579+4N4Z2Mt2/fytN3ra2t79+/b2tr+0A7LzoIChmdnZ1dXV298q4dpVKJuVqt1ul0WC3M3Gq1ImXh7QtarXZwcFCj0fTRc/menh6lUtnf36/RaPCoHeJCQgsNejzSBjtRlcFgEL0a3ieHPB7OCK3nvb09bmBJkQ7NbPx6tVqtUqn6CPj22G3y/v37d+/evX379s2bN69fv3716tWLFy+ey+D5MxkvXrx49erVawLoA7NvCe/eSTwygwqFAmIEdyqVChrBPeOvpFRK+/D6+/shapVK1d3djQs7Ojo6Ozu7u7tBGYtXIwP61REMBoPVanVSpubz+dLpdKlUqlarNcLy8vLq6mqdsEqQXLjZbDaZpE1yBoNhaGiIv1NfX59SqYSOOjo6WltbX79+/fLly+fPnz979uxfMn7++Wd5Kv38WcC//vWvZ8+ePX/+/OXLl69fv3779u2rV69eEsDg27dvITrw1U5QKKQtd11dXT09PTBnWDRTCS6wtaqzs7Ojo4P3DCkUCryLb95NwKfBG/T29qpUKr1ez5mt1+tNJBLFYnFxcXFtbW1zc3ODUK/Xa7ValVAulyUXDpsfGRnBhhNYHHPU1dWlUCg+fPjw7t27V69ePX/+HHSAnZ9++klg5mH6EwEMPnv2DMqCAF8QXr58+erVqzdv3rx79+79+/cfBLS3t3d0dCgIoAD0MZUQDnMnntzV1aVUKlUqFX95hULRQQDLXV1dfX19w8PDdhlutzscDmez2ZmZGTyzQe8Bz/tmZmamp6cLhYKUEDiojW02m4eHh3U6addSf3+/Uqnkm4nv1N7e3tra+ubNG17w8+fPn3L0888//0Rgmp4/xosXL5im1tZW+K82AhwfM4KXeIs9Hb+L9cPWID2IBbcZdtBEE7Smp50wSIDwUMPv98diMTysnyAUCgU8D0+lUtFoVCp9EUewVxVBBNbHHgoxq1vePAgXDr5ggEwWhAaafvrpJ7zkd2GDTNPr16/hpN4/Bizx/fv3rY8hngWyYKGIND0EfFXc487OTpEmCKq7uxv+XqPRwIUN0F9M6HQ6JM9Go9EkVws2m81KMaQlTK37QCDgdruRjyBFMplMcO1DFAHxofwl4NebxAWNvHjx4tmzZ9AUj+ynnj9/zjS9efMG7klkA4ECEVPkS+SIlQUL7STATtmF4SCbLWwTxCHOwnMhUCJrQcqCrGVgYGBwUNp6DUjbwOLx+OjoaDAYxDZLFCLYmmImmEwmbNzREGCVvb298KCtra0cv7AYeLFnj8GWxzS9fv0aTEFTTBa/xKe1CWCLA0GwO9E9MR3MHZhqOt7V1cU0IRdRCcndIGFoaEhH0Ov1UvcSTIXDYb/f7xLglGG3281ms8FgwPVIW1QqVU9PT2dnZ1tbG27++/fv8e3b2trevn37kgCfzSMUh0RBpKlJLEyQyAsHsr6+PjEO8pq7fgQoqElliKQwDiQZGtq5P0TQ6XR6uR1goB6JtHEHNEUikWAw6PV6UbiCIsztdrvJZEIc5Fymr68P3go0wXw+EJBkgYtXBJEXVhCnozAiiAaf0NbWBsYVBEhDqVQih8T+qf7+fhUBLgaeG/5UHBH1oB0ee3t7YWjsnnQ6HSoQ8DJCjTYTwWw2S9vAMpkM9pYFAgHQ5CbAu1ssFmxOHRoagofilKqzs7O9vZ1pgrFwdv6GAMlgzrzgTJYMgh0IgnWwjXRT9YNVgSO+1QYZwwR4UhQSrHpMOBlskg+5EOnPP+C/OYUER2Zqh9lsNrvd3oInHKlUCpswnU6ng3oA0BE28Bqo06bVanlTIaed7e3t0A4SdOTo0A6oYYKavDXSpXYBHTI4JPXRbl/cGyTfKEdQzVipmWcjYM53VE89RRCqo5ocjkItAwQhxsFVGww//ns1u93ucDhasMEhmUyGw2EvbZZ3Op1utxs9cotF2rdqogBpNBq1Wi1cUkdHR1tbG2I2HBOXMm8JsCzMkUO2PQacjsyM9BP2BUcD+aBkYZq4akPklr4W9ZSNciPMSL0znU76UxvoaGhIaiKiDgM1PA5QLBsiaLVacDpCMD7JCVqmpqawoTMcDgcCAY/H4yBws8JoNJoJIyMjg4ODvb29CoWCDQ12hMiNUNXE3dM8GybW3t7+1K0yR0q5fOsnkAt6KPSwcgpBUusG62Q6QFATF5ASH0TIR5UHEkWaRI6sBIvFIiUEsVgMzhsJgdFoRJIJb81ND41Go1QqoSNoB4bGYgFBbYT3ApgXeGWMyJ57CT2PgYPsR+BrEY/UTwAfzIfR5OGXnArxEZDFUmKC9Hr9MO3iN1HHzWKxsFFbrVappjNRJsmZN8I815OwDvgQdkOwJoxsdJhAWe8FME2wLC7lsXIVNSRACgjqlf9YD5oCTchrOLrxS8iNR7VazXNMwNQ/0cQBgUMbPDc4sstoafpzEy6j0PfglbcSIKImXppeMk2QFUbRE3VSswn2hUQH4aynp6dX6ED1yVARxMWDo6eMQFk8YgL58AifhVGr1UJEzJFFFhH4cRIkF/7hwwdQgPXAcCAFZgonYGRSxIPiHNdCQYjxGGFrLCiQJRIEjtjEmAsWgjjhZfNk4P8CqGEvBh0hV4L/ZY4cDgcIcsmQaHpHTbL31GzEInmO9eMgc4Hz+SVPxGtFgkQpMU1Qk6ggqAfs9BNgL01EsAMWdSH6Y3bqTRPRDXEOaZKBJwB2Cv8ulwuZo0dGCxIfrBCCwoh1ikcwZ7k9fYuPNPHSQVAoFJ0yRI5EETUpCIywSpgXrF8MUiIF+n8Gs9NkZdARilm32+0l+AS0oOUmrhAEwWc/FcXTM5vOYY5kTv7+2UXoJkBH/8SRhjBAqU0TO7AamAwIQf6tpyrMQIApjTyBkQABmc1msGMnIKn2er0+ny/wBC0oODiuYQLT4NoacvhvRsVjNDUuOO43hXw2NDWhiSNoh30KCweM8DhMADOgg0fmhamxUQkCH+QmeDzSZptAQNoIGAqFwgJCoVALwj9TgGXitndSp/nxwn/wCmrBG6wcNiu0QOGqwQ4UJAb7Jk80QOB8DTQhKkE+EA54EUeYEvJD2edIP5vYgQNCseGhhy5+QiAQCIVCkUgkSuBtGqOjoy3420pxeVghlsfBm4lrOrPphG4ZbFNiEqQkcB4EEbGCmB0mSCtDRxCFw4ywZDBhUswEC8FK1R+z43Q64aS9Xi92C7GCwFGMHvAlEokkIZFItKDPABZwz3sIWF53dzckgIMyCQ8/0fTBC5zAI0umiZom4Yhhi1UDs4L3YWqavC9LBnTwCHdjfQyYGLPjdrthYk+3pUFB8Xg8mUymCOl0OpVKtfTT04Gn9xzLY9NA84QP4hEeRjYlcSJeqCL0Cw9+IRwU6D9k54dmxXqBZGBK0AurBsKxPYad/mOBy+XyEOCnmaNIJMLsxONxiCiVetimgUkLiiAUAaI59BFgF5CAOKLCwBGc+XQEO6JlceQCNeyVIRy9jJhNFnAAAAKoSURBVKfCEbUDRnhs4gWW5RAAjlhBPp8PnigYlLaQRaNRcd8LtJMipNPpDO3OyGQyLWgyiO0Y3HZ2GWq19Owf1oEJM4tzuGho4pTfZcti4cDXwLggHDYujuVMjYkA7Tw2JquNYJcBcpxP0MRRgMIZcwRPBCsDL2kZf9OEDhY6EshQYBG8Nhzk+8+tHDYcNAyZVqZSPIHdTZNw2LhGZDRZFqsGTqeJF9YOM+MiuAV4KNKziESOYjLY0DL/gIc9BLLepY2EImWwC9z8phFRCCeAO7YpkVmWDH4FVDP8GGKbDc6Y2YF8RHYcMkBNEy8eglcAx7KgjFAoFKX/UgBPBI6gJhgaczU2Nob5w245fHvc0WHaZggWcPPxroFavXz/h2mPRhO/omqaruVfAb2Io+iSRbMCOzYhFRRV45YDlsDJw9Qng/10WAaH/AQB7KRkpNPS35CAHeysxlz6/038jeEFsPMCLBgMBvgIPoddBo7ItiL9HH4CvNv0CSIpompEUmRvI/10UL3OqiG5SBkzByy4ZFhTQECIkmnwwrki7ExUUIqCWoYgUoM5/g6ixUJb5fB1cSfNtEcFlMEEno68PPEtZpkn8Lt8Mv8WMMIG1eRiYFVOOQmEauBiQA07GhgUCAIp4XA4RAiHpY3QUQpknC6CHZGXTCYDOrLZ7NNJLpfL5/PSP02z0WNyq5yn8oZ3dplW2oeJl2wRfOf5cn5LPF88jedMCtOBuoHpgP8FLz4C6wVaARE8hgnRxxgliFEsLSOTyWSz2ZyM8fHxPEE+8PATBzG2/NO+UpY9iICD4IMwBCc9rcJB7NfgE3A+u5KmietJQ4dsSKrOwYjIS5BqURYLAvljTqRXYCQuQzQrlkwulwNB+Xy+IGNiQvpLtUJB+kOsJoCj8fHx/wGuAck7cGTahgAAAABJRU5ErkJggg==;" parent="1" vertex="1">
          <mxGeometry x="610" y="366.5" width="98" height="77" as="geometry" />
        </mxCell>
        <mxCell id="fBQ9f3TqxgZIcAiOvmAp-5" value="" style="shape=cylinder3;whiteSpace=wrap;html=1;boundedLbl=1;backgroundOutline=1;size=10.665012207031225;rotation=90;fillColor=#647687;fontColor=#ffffff;strokeColor=#314354;" parent="1" vertex="1">
          <mxGeometry x="211.99" y="293.42" width="80.62" height="86.31" as="geometry" />
        </mxCell>
        <mxCell id="fBQ9f3TqxgZIcAiOvmAp-8" value="ResNets" style="text;html=1;align=center;verticalAlign=middle;whiteSpace=wrap;rounded=0;" parent="1" vertex="1">
          <mxGeometry x="211.99" y="321.58" width="60" height="30" as="geometry" />
        </mxCell>
        <mxCell id="fBQ9f3TqxgZIcAiOvmAp-9" value="&lt;font style=&quot;font-size: 11px;&quot;&gt;ZCA&lt;/font&gt;&lt;div style=&quot;font-size: 11px;&quot;&gt;&lt;font style=&quot;font-size: 11px;&quot;&gt;L1-Norm&lt;/font&gt;&lt;/div&gt;" style="rounded=0;whiteSpace=wrap;html=1;fillColor=#f0a30a;fontColor=#000000;strokeColor=#BD7000;" parent="1" vertex="1">
          <mxGeometry x="370" y="360" width="50" height="90" as="geometry" />
        </mxCell>
        <mxCell id="fBQ9f3TqxgZIcAiOvmAp-12" value="" style="endArrow=classic;html=1;rounded=0;" parent="1" edge="1">
          <mxGeometry width="50" height="50" relative="1" as="geometry">
            <mxPoint x="420" y="380" as="sourcePoint" />
            <mxPoint x="460" y="380" as="targetPoint" />
          </mxGeometry>
        </mxCell>
        <mxCell id="fBQ9f3TqxgZIcAiOvmAp-13" value="" style="endArrow=classic;html=1;rounded=0;" parent="1" edge="1">
          <mxGeometry width="50" height="50" relative="1" as="geometry">
            <mxPoint x="420" y="430" as="sourcePoint" />
            <mxPoint x="460" y="430" as="targetPoint" />
          </mxGeometry>
        </mxCell>
        <mxCell id="fBQ9f3TqxgZIcAiOvmAp-16" style="edgeStyle=orthogonalEdgeStyle;rounded=0;orthogonalLoop=1;jettySize=auto;html=1;" parent="1" source="fBQ9f3TqxgZIcAiOvmAp-14" edge="1">
          <mxGeometry relative="1" as="geometry">
            <mxPoint x="540" y="404.9999999999999" as="targetPoint" />
          </mxGeometry>
        </mxCell>
        <mxCell id="fBQ9f3TqxgZIcAiOvmAp-14" value="Resize" style="rounded=0;whiteSpace=wrap;html=1;fillColor=#bac8d3;strokeColor=#23445d;" parent="1" vertex="1">
          <mxGeometry x="460" y="360" width="50" height="90" as="geometry" />
        </mxCell>
        <mxCell id="fBQ9f3TqxgZIcAiOvmAp-20" style="edgeStyle=orthogonalEdgeStyle;rounded=0;orthogonalLoop=1;jettySize=auto;html=1;entryX=0;entryY=0.5;entryDx=0;entryDy=0;" parent="1" source="fBQ9f3TqxgZIcAiOvmAp-15" target="fBQ9f3TqxgZIcAiOvmAp-4" edge="1">
          <mxGeometry relative="1" as="geometry" />
        </mxCell>
        <mxCell id="fBQ9f3TqxgZIcAiOvmAp-15" value="重构" style="rounded=0;whiteSpace=wrap;html=1;fillColor=#eeeeee;strokeColor=#36393d;" parent="1" vertex="1">
          <mxGeometry x="541" y="320" width="39" height="170" as="geometry" />
        </mxCell>
        <mxCell id="fBQ9f3TqxgZIcAiOvmAp-21" value="中长波图像" style="text;html=1;align=center;verticalAlign=middle;whiteSpace=wrap;rounded=0;" parent="1" vertex="1">
          <mxGeometry x="81.99000000000001" y="366.58" width="76" height="30" as="geometry" />
        </mxCell>
        <mxCell id="fBQ9f3TqxgZIcAiOvmAp-22" value="长波图像" style="text;html=1;align=center;verticalAlign=middle;whiteSpace=wrap;rounded=0;" parent="1" vertex="1">
          <mxGeometry x="80" y="486.58" width="76" height="30" as="geometry" />
        </mxCell>
        <mxCell id="fBQ9f3TqxgZIcAiOvmAp-23" value="融合图像" style="text;html=1;align=center;verticalAlign=middle;whiteSpace=wrap;rounded=0;" parent="1" vertex="1">
          <mxGeometry x="621" y="446.31" width="76" height="30" as="geometry" />
        </mxCell>
        <mxCell id="lupZfDlFWK5aUlkw8QFh-4" style="edgeStyle=orthogonalEdgeStyle;rounded=0;orthogonalLoop=1;jettySize=auto;html=1;" edge="1" parent="1" source="lupZfDlFWK5aUlkw8QFh-2" target="lupZfDlFWK5aUlkw8QFh-3">
          <mxGeometry relative="1" as="geometry" />
        </mxCell>
        <mxCell id="lupZfDlFWK5aUlkw8QFh-2" value="Conv" style="rounded=0;whiteSpace=wrap;html=1;" vertex="1" parent="1">
          <mxGeometry x="250" y="610" width="60" height="25" as="geometry" />
        </mxCell>
        <mxCell id="lupZfDlFWK5aUlkw8QFh-5" style="edgeStyle=orthogonalEdgeStyle;rounded=0;orthogonalLoop=1;jettySize=auto;html=1;" edge="1" parent="1" source="lupZfDlFWK5aUlkw8QFh-3">
          <mxGeometry relative="1" as="geometry">
            <mxPoint x="280" y="730" as="targetPoint" />
            <Array as="points">
              <mxPoint x="280" y="710" />
              <mxPoint x="280" y="710" />
            </Array>
          </mxGeometry>
        </mxCell>
        <mxCell id="lupZfDlFWK5aUlkw8QFh-3" value="Conv" style="rounded=0;whiteSpace=wrap;html=1;" vertex="1" parent="1">
          <mxGeometry x="250" y="660" width="60" height="25" as="geometry" />
        </mxCell>
        <mxCell id="lupZfDlFWK5aUlkw8QFh-7" value="" style="endArrow=none;html=1;rounded=0;" edge="1" parent="1">
          <mxGeometry width="50" height="50" relative="1" as="geometry">
            <mxPoint x="280" y="610" as="sourcePoint" />
            <mxPoint x="280" y="580" as="targetPoint" />
          </mxGeometry>
        </mxCell>
        <mxCell id="lupZfDlFWK5aUlkw8QFh-8" value="" style="curved=1;endArrow=classic;html=1;rounded=0;" edge="1" parent="1">
          <mxGeometry width="50" height="50" relative="1" as="geometry">
            <mxPoint x="280" y="590" as="sourcePoint" />
            <mxPoint x="280" y="710" as="targetPoint" />
            <Array as="points">
              <mxPoint x="340" y="610" />
              <mxPoint x="360" y="660" />
              <mxPoint x="340" y="700" />
            </Array>
          </mxGeometry>
        </mxCell>
        <mxCell id="lupZfDlFWK5aUlkw8QFh-9" value="" style="shape=cylinder3;whiteSpace=wrap;html=1;boundedLbl=1;backgroundOutline=1;size=10.665012207031225;rotation=90;fillColor=#647687;fontColor=#ffffff;strokeColor=#314354;" vertex="1" parent="1">
          <mxGeometry x="211.99" y="413.42999999999995" width="80.62" height="86.31" as="geometry" />
        </mxCell>
        <mxCell id="lupZfDlFWK5aUlkw8QFh-10" value="ResNets" style="text;html=1;align=center;verticalAlign=middle;whiteSpace=wrap;rounded=0;" vertex="1" parent="1">
          <mxGeometry x="211.99" y="441.58" width="60" height="30" as="geometry" />
        </mxCell>
      </root>
    </mxGraphModel>
  </diagram>
</mxfile>
